<svg xmlns="http://www.w3.org/2000/svg" viewBox="0 0 64 64" width="32" height="32">
  <g fill="white">
    <!-- 좌측 건물 -->
    <rect x="4" y="28" width="16" height="20" rx="1"></rect>
    <!-- 우측 건물 -->
    <rect x="44" y="28" width="16" height="20" rx="1"></rect>
    <!-- 중앙 건물 -->
    <rect x="24" y="20" width="16" height="28"></rect>
    <!-- 삼각 지붕 -->
    <polygon points="32,8 22,20 42,20"></polygon>
    <!-- 시계 (외곽 원 + 시침/분침) -->
    <circle cx="32" cy="26" r="3" fill="white"></circle>
    <path d="M32 26 L32 24 M32 26 L34 26" stroke="white" stroke-width="1" fill="none"></path>
    <!-- 중앙 출입문 -->
    <rect x="30" y="38" width="4" height="10" rx="1"></rect>
    
    <!-- 좌측 창문들 -->
    <g transform="translate(6,30)">
      <rect x="0" y="0" width="3" height="3"></rect>
      <rect x="6" y="0" width="3" height="3"></rect>
      <rect x="0" y="6" width="3" height="3"></rect>
      <rect x="6" y="6" width="3" height="3"></rect>
    </g>
    
    <!-- 우측 창문들 -->
    <g transform="translate(46,30)">
      <rect x="0" y="0" width="3" height="3"></rect>
      <rect x="6" y="0" width="3" height="3"></rect>
      <rect x="0" y="6" width="3" height="3"></rect>
      <rect x="6" y="6" width="3" height="3"></rect>
    </g>
  </g>
</svg>
